# xmcd
#
# Track frame offsets: 
#        150
#        16317
#        34147
#        52907
#        72715
#        87507
#        106720
#        120405
#        137795
#        152240
#
# Disc length: 2221 seconds
#
# Revision: 0
# Processed by: cddbd v1.5.1PL2 Copyright (c) Steve Scherf et al.
# Submitted via: ExactAudioCopy v0.95b4
#
DISCID=8108ab0a
DTITLE=Zack - Zack
DYEAR=2000
DGENRE=Country
TTITLE0=Banks of Caroline
TTITLE1=She Don't Know
TTITLE2=Jolene
TTITLE3=Nobody's Fool
TTITLE4=JJJulie
TTITLE5=Albington
TTITLE6=Louisiana Ride
TTITLE7=18 Wheels
TTITLE8=Good Time Charlie
TTITLE9=Joseph's Lullaby
EXTD=
EXTT0=
EXTT1=
EXTT2=
EXTT3=
EXTT4=
EXTT5=
EXTT6=
EXTT7=
EXTT8=
EXTT9=
PLAYORDER=
